<?xml version="1.0" encoding="UTF-8"?>
<svg width="1500px" height="848px" viewBox="0 0 1500 848" version="1.1" xmlns="http://www.w3.org/2000/svg" xmlns:xlink="http://www.w3.org/1999/xlink">
    <!-- Generator: Sketch 64 (93537) - https://sketch.com -->
    <title>hero background@1x</title>
    <desc>Created with Sketch.</desc>
    <defs>
        <rect id="path-1" x="0" y="0" width="1500" height="818"></rect>
        <polygon id="path-3" points="9.27625935e-13 588.819027 1796.60453 588.819027 1796.60453 0.12554411 9.27625935e-13 0.12554411"></polygon>
        <linearGradient x1="50%" y1="0%" x2="50%" y2="99.7363032%" id="linearGradient-5">
            <stop stop-color="#151515" offset="0%"></stop>
            <stop stop-color="#151515" stop-opacity="0" offset="99.9683277%"></stop>
        </linearGradient>
    </defs>
    <g id="Home" stroke="none" stroke-width="1" fill="none" fill-rule="evenodd">
        <g id="hero-background">
            <g id="hero-image">
                <mask id="mask-2" fill="white">
                    <use xlink:href="#path-1"></use>
                </mask>
                <g id="Mask"></g>
                <g mask="url(#mask-2)">
                    <g transform="translate(601.697736, 386.500000) rotate(-360.000000) translate(-601.697736, -386.500000) translate(-296.604527, 92.000000)">
                        <polygon id="Fill-1" fill="#0088CE" points="824.900133 127 1222.37017 127 1222.37017 115 824.900133 115"></polygon>
                        <polygon id="Fill-2" fill="#CC0000" points="922.76964 242 1473.03595 242 1473.03595 230 922.76964 230"></polygon>
                        <g id="Group-39" stroke-width="1" fill="none" transform="translate(0.000000, 0.000000)">
                            <path d="M1279.05883,416.05463 L1279.05883,403.254071 C1286.95157,403.254071 1294.37164,400.177482 1299.95668,394.588113 L1336.40716,358.086681 C1344.28599,350.196831 1355.19194,345.668955 1366.33422,345.668955 L1380.20124,345.668955 L1380.20124,358.469514 L1366.33422,358.469514 C1358.55617,358.469514 1350.94494,361.62615 1345.44331,367.131992 L1308.98937,403.636904 C1300.99584,411.641604 1290.36445,416.05463 1279.05883,416.05463" id="Fill-3" fill="#F0AB00"></path>
                            <path d="M1566.6012,358.459421 L665.456412,358.459421 C654.150787,358.459421 643.5194,354.049876 635.52935,346.045176 L599.075402,309.540263 C593.493837,303.950894 586.073761,300.874305 578.184499,300.874305 L502.506673,300.874305 L502.506673,288.073746 L578.184499,288.073746 C589.490124,288.073746 600.114561,292.486772 608.111561,300.494952 L644.562033,336.996384 C650.143599,342.582273 657.563675,345.658862 665.456412,345.658862 L1566.6012,345.658862 C1574.49394,345.658862 1581.91402,342.582273 1587.49211,336.996384 L1623.94605,300.494952 C1631.94305,292.486772 1642.57097,288.073746 1653.87659,288.073746 L1667.74014,288.073746 L1667.74014,300.874305 L1653.87659,300.874305 C1645.98733,300.874305 1638.56378,303.950894 1632.98221,309.540263 L1596.52826,346.045176 C1588.53822,354.046395 1577.9103,358.459421 1566.6012,358.459421" id="Fill-7" fill="#F0AB00"></path>
                            <path d="M420.763152,358.483435 L406.903076,358.483435 C395.597451,358.469514 384.97649,354.053008 376.989916,346.041347 L340.542919,309.539915 C334.961353,303.954027 327.541277,300.873957 319.64854,300.873957 L0.00139017821,300.873957 L0.00139017821,288.076878 L319.64854,288.076878 C330.954165,288.076878 341.582077,292.486424 349.579077,300.494604 L386.02955,336.996036 C391.60764,342.592366 399.024241,345.675915 406.910026,345.682876 L420.763152,345.682876 L420.763152,358.483435 Z" id="Fill-9" fill="#EC7A08"></path>
                            <path d="M639.753407,416.05463 L611.508461,416.05463 C600.213263,416.05115 589.592302,411.645084 581.605728,403.654306 L545.15178,367.149393 C539.570215,361.563505 532.146663,358.483435 524.257402,358.483435 L0.000347544551,358.483435 L0.000347544551,345.682876 L524.257402,345.682876 C535.563026,345.682876 546.190938,350.095902 554.187938,358.104082 L590.634935,394.605514 C596.213025,400.177482 603.626151,403.25059 611.511937,403.254071 L639.753407,403.254071 L639.753407,416.05463 Z" id="Fill-11" fill="#EC7A08"></path>
                            <path d="M1084.71574,243.283273 L561.153774,243.283273 L561.153774,230.482713 L1084.71574,230.482713 C1092.60848,230.482713 1100.02855,227.406124 1105.61359,221.816756 L1114.64628,230.865547 C1106.65275,238.870247 1096.02136,243.283273 1084.71574,243.283273" id="Fill-13" fill="#CC0000"></path>
                            <path d="M1114.64732,230.864155 L1105.61116,221.815363 L1142.06163,185.313931 C1150.05516,177.305751 1160.68307,172.899686 1171.99217,172.899686 L1193.04642,172.899686 L1193.04642,185.696765 L1171.99217,185.696765 C1164.09943,185.696765 1156.67588,188.773354 1151.09432,194.362723 L1114.64732,230.864155 Z" id="Fill-15" fill="#CC0000"></path>
                            <path d="M1322.70243,185.698505 L1294.45749,185.698505 C1283.14491,185.695025 1272.517,181.281999 1264.52695,173.280779 L1170.5648,79.1872702 L1179.59749,70.1384789 L1273.55963,164.231988 C1279.1412,169.821356 1286.56475,172.894465 1294.46096,172.897945 L1322.70243,172.897945 L1322.70243,185.698505 Z" id="Fill-17" fill="#92D400"></path>
                            <mask id="mask-4" fill="white">
                                <use xlink:href="#path-3"></use>
                            </mask>
                            <g id="Clip-20"></g>
                            <polygon id="Fill-19" fill="#CC0000" mask="url(#mask-4)" points="296.952491 243.283969 567.387333 243.283969 567.387333 230.483409 296.952491 230.483409"></polygon>
                            <path d="M1559.92174,300.874653 L1546.05819,300.874653 C1534.74909,300.874653 1524.11771,296.461627 1516.12418,288.456927 L1422.16204,194.356458 C1416.58047,188.767089 1409.16039,185.68702 1401.27113,185.68702 L598.012264,185.68702 C586.706639,185.68702 576.075252,181.277474 568.078251,173.269294 L531.627779,136.771342 C526.046213,131.181973 518.626137,128.101904 510.7334,128.101904 L432.167479,128.101904 L432.167479,115.304825 L510.7334,115.304825 C522.039025,115.304825 532.666937,119.71437 540.663937,127.722551 L577.11441,164.220503 C582.695975,169.809871 590.119527,172.889941 598.012264,172.889941 L1401.27113,172.889941 C1412.57676,172.889941 1423.20119,177.299486 1431.19819,185.307667 L1525.16381,279.408136 C1530.66197,284.917458 1538.27667,288.074094 1546.05819,288.074094 L1559.92174,288.074094 L1559.92174,300.874653 Z" id="Fill-21" fill="#00B9E4" mask="url(#mask-4)"></path>
                            <path d="M1013.08542,473.639398 L1013.08542,460.838839 C1020.97815,460.838839 1028.39475,457.762249 1033.97979,452.172881 L1059.39225,426.728375 L1068.42841,435.773687 L1043.01248,461.221672 C1035.01895,469.226372 1024.39104,473.639398 1013.08542,473.639398" id="Fill-22" fill="#92D400" mask="url(#mask-4)"></path>
                            <path d="M301.410097,243.283273 L237.22557,243.283273 L237.22557,230.482713 L301.410097,230.482713 C309.302834,230.482713 316.72291,227.406124 322.307951,221.816756 L416.270096,127.723247 C424.267096,119.715066 434.895009,115.305521 446.200633,115.305521 L481.625849,115.305521 L481.625849,128.1026 L446.200633,128.1026 C438.311372,128.1026 430.88782,131.182669 425.302779,136.772038 L331.340634,230.865547 C323.34711,238.870247 312.715722,243.283273 301.410097,243.283273" id="Fill-23" fill="#820000" mask="url(#mask-4)"></path>
                            <path d="M229.528848,185.698505 L-2.15726962e-14,185.698505 L-2.15726962e-14,172.897945 L229.525373,172.897945 C237.418109,172.894465 244.838186,169.821356 250.419751,164.231988 L286.870224,127.730555 C294.867224,119.722375 305.491661,115.309349 316.797285,115.309349 L330.678214,115.309349 L330.678214,128.109909 L316.797285,128.109909 C308.908024,128.109909 301.487947,131.189978 295.906382,136.775866 L259.452434,173.280779 C251.46586,181.281999 240.834472,185.695025 229.528848,185.698505" id="Fill-24" fill="#0088CE" mask="url(#mask-4)"></path>
                            <path d="M325.442803,531.234259 L-0.00139017821,531.234259 L-0.00139017821,518.433699 L325.439328,518.433699 C333.332065,518.430219 340.752141,515.35711 346.333706,509.767741 L382.784179,473.266309 C390.774228,465.261609 401.40214,460.848583 412.707765,460.845103 L433.768964,460.845103 L433.768964,473.645663 L412.71124,473.645663 C404.821979,473.649143 397.398427,476.725732 391.820337,482.31162 L355.366389,518.816533 C347.379815,526.817753 336.748427,531.230778 325.442803,531.234259" id="Fill-25" fill="#3F9C35" mask="url(#mask-4)"></path>
                            <path d="M1258.00597,416.068203 L1150.68074,416.068203 C1139.37164,416.068203 1128.74373,411.655177 1120.7502,403.653958 L1084.3032,367.149045 C1078.71816,361.563157 1071.29461,358.483087 1063.40535,358.483087 L970.464986,358.483087 L970.464986,345.682528 L1063.40535,345.682528 C1074.71097,345.682528 1085.33889,350.095554 1093.33589,358.103734 L1129.78636,394.605166 C1135.36792,400.191055 1142.788,403.267644 1150.68074,403.267644 L1258.00597,403.267644 L1258.00597,416.068203 Z" id="Fill-26" fill="#F0AB00" mask="url(#mask-4)"></path>
                            <path d="M754.334675,473.639398 L754.286019,473.639398 L682.91427,473.639398 L682.91427,460.838839 L754.29297,460.838839 L754.327724,460.838839 C762.21351,460.838839 769.619684,457.77269 775.197774,452.200723 L811.644771,415.706252 C819.641772,407.698071 830.273159,403.285045 841.578784,403.285045 L891.388869,403.285045 L891.388869,416.085605 L841.578784,416.085605 C833.686047,416.085605 826.262495,419.165674 820.68093,424.751563 L784.230457,461.252995 C776.233457,469.243774 765.619447,473.639398 754.334675,473.639398" id="Fill-28" fill="#92D400" mask="url(#mask-4)"></path>
                            <path d="M361.626362,70.5188762 L311.816276,70.5188762 C300.510652,70.5188762 289.879264,66.1058502 281.88574,58.1011502 L245.376185,21.5927575 C239.787668,16.0033887 232.371067,12.9233193 224.478331,12.9233193 L153.134385,12.9233193 L153.134385,0.122759866 L224.478331,0.122759866 C235.783955,0.122759866 246.411867,4.5357858 254.405392,12.5439661 L290.914947,49.0488786 C296.503464,54.6417277 303.92354,57.7183167 311.816276,57.7183167 L361.626362,57.7183167 L361.626362,70.5188762 Z" id="Fill-29" fill="#92D400" mask="url(#mask-4)"></path>
                            <path d="M675.220676,588.819027 L0.000695089103,588.819027 L0.000695089103,576.018467 L675.220676,576.018467 C683.113413,576.018467 690.533489,572.941878 696.11853,567.352509 L732.569002,530.851077 C740.559052,522.846377 751.186964,518.433351 762.496064,518.433351 L797.928231,518.433351 L797.928231,531.233911 L762.496064,531.233911 C754.603327,531.233911 747.183251,534.3105 741.608636,539.896388 L705.151213,576.401301 C697.157688,584.406001 686.5263,588.819027 675.220676,588.819027" id="Fill-30" fill="#0088CE" mask="url(#mask-4)"></path>
                            <path d="M955.587993,531.224166 L549.322315,531.224166 C538.01669,531.224166 527.385303,526.81462 519.388302,518.813401 L482.941305,482.305008 C477.356264,476.719119 469.936188,473.63905 462.043451,473.63905 L448.183375,473.63905 L448.183375,460.838491 L462.043451,460.838491 C473.349076,460.838491 483.980464,465.251516 491.977464,473.259697 L528.424461,509.761129 C534.006026,515.347017 541.429578,518.423606 549.322315,518.423606 L955.587993,518.423606 C963.48073,518.423606 970.897331,515.347017 976.482372,509.757649 L1070.44452,415.66414 C1078.43804,407.65596 1089.06595,403.249894 1100.37505,403.249894 L1114.23861,403.249894 L1114.23861,416.046973 L1100.37505,416.046973 C1092.48232,416.046973 1085.05877,419.123562 1079.4772,424.712931 L985.515055,518.80992 C977.52153,526.81462 966.890142,531.224166 955.587993,531.224166" id="Fill-31" fill="#00B9E4" mask="url(#mask-4)"></path>
                            <path d="M740.412388,70.5119156 L719.358139,70.5119156 C708.045564,70.5084353 697.421127,66.0954093 689.427602,58.0941896 L652.980605,21.5892772 C647.395564,16.0033887 639.975488,12.9233193 632.082751,12.9233193 L-2.15726962e-14,12.9233193 L-2.15726962e-14,0.122759866 L632.082751,0.122759866 C643.388375,0.122759866 654.019763,4.5357858 662.013288,12.5439661 L698.46376,49.0453983 C704.04185,54.6347671 711.465402,57.7078758 719.361614,57.7113561 L740.412388,57.7113561 L740.412388,70.5119156 Z" id="Fill-32" fill="#3F9C35" mask="url(#mask-4)"></path>
                            <polygon id="Fill-33" fill="#F0AB00" mask="url(#mask-4)" points="-4.31453923e-14 416.053238 1279.05779 416.053238 1279.05779 403.252678 -4.31453923e-14 403.252678"></polygon>
                            <polygon id="Fill-34" fill="#92D400" mask="url(#mask-4)" points="-2.15726962e-14 473.638354 1013.08542 473.638354 1013.08542 460.837794 -2.15726962e-14 460.837794"></polygon>
                            <path d="M829.501263,128.103644 L-0.000695089103,128.103644 L-0.000695089103,115.303085 L829.501263,115.303085 C837.394,115.303085 844.8106,112.226496 850.395641,106.637127 L886.846114,70.139175 C894.843114,62.1309946 905.467551,57.7179687 916.773175,57.7179687 L930.640203,57.7179687 L930.640203,70.5185281 L916.773175,70.5185281 C908.883914,70.5185281 901.463838,73.5985975 895.882272,79.184486 L859.428324,115.685918 C851.4348,123.690618 840.806887,128.103644 829.501263,128.103644" id="Fill-35" fill="#0088CE" mask="url(#mask-4)"></path>
                            <path d="M1170.58705,79.1855301 C1165.00548,73.5996416 1157.58193,70.5195722 1149.68919,70.5195722 L352.40809,70.5195722 L352.40809,57.7190128 L1149.68919,57.7190128 C1160.99482,57.7190128 1171.6262,62.1320387 1179.6232,70.1367387 L1170.58705,79.1855301 Z" id="Fill-36" fill="#92D400" mask="url(#mask-4)"></path>
                            <path d="M4132.54871,300.874653 L481.637666,300.874653 C470.332041,300.874653 459.700654,296.461627 451.707129,288.456927 L415.24623,251.965936 C409.664665,246.376567 402.244588,243.296498 394.355327,243.296498 L394.355327,230.495939 C405.660951,230.495939 416.285388,234.908964 424.282388,242.917145 L460.739812,279.404656 C466.324853,284.997505 473.748404,288.074094 481.637666,288.074094 C2915.57836,288.074094 4132.54871,288.074094 4132.54871,288.074094 C4132.54871,288.074094 4132.54871,292.340947 4132.54871,300.874653 Z" id="Fill-38" fill="#CC0000" mask="url(#mask-4)"></path>
                        </g>
                    </g>
                </g>
            </g>
            <rect id="gradient-overlay" fill="url(#linearGradient-5)" x="0" y="0" width="1500" height="851"></rect>
        </g>
    </g>
</svg>