<svg xmlns="http://www.w3.org/2000/svg" viewBox="0 0 50 50"><defs><style>.cls-1{fill:#212427;}.cls-2{fill:#f0f0f0;}</style></defs><g id="Layer_2" data-name="Layer 2"><g id="Layer_1-2" data-name="Layer 1"><circle class="cls-1" cx="25" cy="25" r="25"/><path class="cls-2" d="M31,26.8a2.37,2.37,0,0,1,.78-1.25,10.3,10.3,0,0,0-3.88-2.89,5.79,5.79,0,0,0-3.19-10.61,5.83,5.83,0,0,0-5.85,5.78,5.73,5.73,0,0,0,2.58,4.83A10.79,10.79,0,0,0,15,32.93a.89.89,0,0,0,.88.88.82.82,0,0,0,.89-.88c0-5,3.67-9.18,8-9.18a7.64,7.64,0,0,1,6.17,3.3ZM24.55,22a4.14,4.14,0,0,1-4.22-4.15,4.25,4.25,0,0,1,4.22-4.22A4.39,4.39,0,0,1,29,17.72,4.51,4.51,0,0,1,24.55,22Z"/><path class="cls-2" d="M29.56,28.16a.83.83,0,0,0-.59-.25.87.87,0,0,0-.6.24L26,30.55a.8.8,0,0,0-.25.59.84.84,0,0,0,.25.6l2.39,2.39a.75.75,0,0,0,.28.18.7.7,0,0,0,.31.07.85.85,0,0,0,.6-1.45l-1.79-1.79,1.79-1.79A.84.84,0,0,0,29.56,28.16Z"/><path class="cls-2" d="M38.82,30.58,36.4,28.16a.83.83,0,0,0-.58-.24.87.87,0,0,0-.61.26.83.83,0,0,0,0,1.17L37,31.15l-1.79,1.79a.84.84,0,0,0,0,1.19.92.92,0,0,0,.28.19.87.87,0,0,0,.32.06.81.81,0,0,0,.59-.25l2.39-2.39A.84.84,0,0,0,38.82,30.58Z"/><path class="cls-2" d="M33.51,26.54a.68.68,0,0,0-.2,0,1,1,0,0,0-.44.11.86.86,0,0,0-.38.53l-1.94,7.75a.85.85,0,0,0,.71,1h.11a.84.84,0,0,0,.82-.64l1.94-7.74A.85.85,0,0,0,33.51,26.54Z"/></g></g></svg>